<svg version="1" xmlns="http://www.w3.org/2000/svg" width="933.333" height="933.333" viewBox="0 0 700 700"><path d="M0 22.2v22.3l22-22C34.1 10.4 44 .4 44 .3c0-.2-9.9-.3-22-.3H0v22.2zM202.6 39l-38.8 39-11.2-10.9c-6.1-6-19.6-19.3-30.1-29.5l-19-18.5-51.8 51.7L0 122.5v31.2c0 17.2.3 31.3.6 31.3s23.6-23 51.7-51.1l51-51 30.3 30.2 30.2 30.2 71.1-71.1C274 33.1 306 .9 306 .6c0-.3-14.5-.6-32.2-.6h-32.3l-38.9 39z"/><path d="M275.2 109.6C215.2 169.8 165.7 219 165.4 219c-.4 0-6.3-5.6-13.3-12.4-6.9-6.8-20.7-20.3-30.6-30l-18-17.6-23.8 24.3c-13.1 13.3-36.4 36.9-51.8 52.5L0 264l.2 31.6.3 31.7 34.4-33.9c18.9-18.6 42.4-41.8 52.2-51.4l17.9-17.6 10.3 9.9c5.6 5.5 18.3 17.8 28.3 27.6 9.9 9.7 18.9 18.4 20 19.3 1.9 1.7 6.3-2.6 143.4-139.7L448.5 0l-32 .1-32 .1-109.3 109.4z"/><path d="M429.5 96.6c-53.3 53.1-134.4 133.9-180.2 179.5-45.7 45.6-83.5 82.9-84 82.9s-1.5-.8-2.4-1.8c-.8-.9-14-13.9-29.3-28.7-15.3-14.9-28-27.2-28.2-27.5-.3-.2-24.1 23.2-52.9 52L0 405.5v64L52.5 417l52.5-52.5 30.2 30.2 30.3 30.2 183.8-183.7L533 57.4l29.8 29.8c16.3 16.4 30.1 29.8 30.6 29.8s24.7-23.8 53.7-52.9L700 11.2V0h-54.1l-24.3 24.2c-13.4 13.4-25.3 25.2-26.4 26.2l-2.2 1.9-10.3-10.1c-5.6-5.5-17.6-17.3-26.7-26.1L539.5.1h-13l-97 96.5z"/><path d="M646.5 141l-53 53-10.2-9.7c-5.5-5.4-19-18.5-29.8-29.1-10.8-10.5-20-19.2-20.4-19.2-.5 0-83.1 82.2-183.5 182.7L166.9 501.3l-7.2-7c-4-3.9-8.8-8.6-10.8-10.4-2-1.9-10.5-10-19-18-22.6-21.5-24.3-22.9-25.2-22.6-.5.1-24.2 23.6-52.8 52.2L0 547.4v65.1l53.3-53.2 53.2-53.3 9.5 9.1c5.2 5 18.8 18.3 30.2 29.4l20.8 20.3 183-183 183-183 7.2 6.8c3.9 3.8 8.6 8.2 10.3 9.9 1.8 1.6 10.6 10.1 19.7 18.7 22 21 24.1 22.9 25.1 22.5.5-.1 24.2-23.6 52.8-52.2l51.9-51.9v-32.3c0-17.8-.1-32.3-.3-32.3-.1 0-24.1 23.9-53.2 53z"/><path d="M690.2 239c-5.1 5.2-28.6 29.1-52.2 53.1l-42.9 43.5-30.3-30.3-30.3-30.2-183.7 183.7L167 642.6l-29.7-29.8c-16.4-16.4-30.2-29.8-30.7-29.8-.4 0-24.6 23.8-53.7 52.9L0 688.7V700h54.1l26-26c14.3-14.3 26.3-26 26.6-26 .3 0 5.1 4.5 10.6 9.9 5.6 5.5 17.6 17.2 26.7 26l16.5 16.1 6.7-.3 6.7-.2 143.8-143.2c79.1-78.7 160.2-159.5 180.3-179.5l36.6-36.4 2.9 2.9c1.7 1.6 15.1 14.8 30 29.2 20.5 20 27.3 26.1 28.5 25.5.8-.5 24.6-24 52.8-52.2l51.2-51.3-.2-32.5-.3-32.5-9.3 9.5z"/><path d="M681.9 389.9c-33.3 33.2-86.2 85.1-86.8 85.1-.8 0-12.6-11.4-39.5-37.7l-20.9-20.5-141.6 141.6L251.5 700H315l109.9-109.9c99-99 110-109.7 111.3-108.2.8.9 8.4 8.1 16.8 16.1 8.4 8 17.5 16.5 20.1 19 14.9 14.3 20.6 19.6 22.1 20.8 1.4 1.1 8.1-5.2 53.2-50.3l51.6-51.6v-31.5c0-17.2-.3-31.3-.7-31.3-.5.1-8.3 7.6-17.4 16.8z"/><path d="M648.1 565.7l-51.4 51.4-30.3-30.2-30.2-30.2-71.1 71.1C426 666.9 394 699.1 394 699.4c0 .3 14.5.6 32.2.6h32.2l38.9-39 38.9-39 13.2 12.9c7.2 7.1 20.8 20.3 30.1 29.5l17 16.5 51.8-51.7 51.7-51.7-.2-31.6-.3-31.6-51.4 51.4zM677.5 678l-22 22H700v-22c0-12.1-.1-22-.3-22-.1 0-10.1 9.9-22.2 22z"/></svg>