<svg xmlns="http://www.w3.org/2000/svg" viewBox="0 0 1005 777"><path d="M350.1 727.7c-63.4-62-133.4-130.6-192.4-201.5l-6.6-6.6c-24-28.8-54.7-64.2-72.1-108.5-30.6-75.3-24-159.4 17.5-228 43.7-70.9 118.1-117.3 196.8-124h21.9c39.4 0 76.5 8.9 109.3 26.6l15.3 6.6 15.3-6.6c30.6-17.7 67.7-26.6 107.1-26.6 8.7 0 17.5 2.2 26.2 2.2 56.9 4.5 111.5 31 155.2 73.1 45.9 44.3 72.1 101.8 76.5 163.9 8.7 110.7-52.5 181.5-87.4 223.6l-4.4 4.4c-65.6 77.5-146.5 155-216.4 219.2l-72.1 68.6-89.7-86.4m-239.5-159c61.1 73.1 133.2 141.6 196.5 205.8l48 46.5h170.3l26.2-24.3c69.9-66.4 152.9-146.1 220.6-225.7l4.4-4.4c34.9-44.3 111.4-132.8 102.6-270-4.4-77.5-37.1-148.3-93.9-203.6C733 42 663.1 8.8 593.2 2.2 582.3 0 573.5 0 562.6 0c-43.7 0-85.2 8.8-122.3 26.5C403.2 8.8 361.7 0 318 0h-26.2C193.5 8.8 99.6 68.6 47.2 154.9c-52.4 86.3-61.1 190.3-21.8 285.5 21.9 53.1 56.8 95.1 85.2 128.3m96.5-199.8c-15.2-35.6-10.9-73.3 8.7-104.4 19.6-33.3 54.3-55.5 89-60 56.4-4.5 80.3 24.4 108.6 57.7l28.2 33.3 26.1-31.1c28.2-37.8 52.1-60 95.5-60h13c23.9 2.2 52.1 15.6 71.7 35.5 15.2 13.3 32.6 37.7 34.7 73.3 4.4 55.5-26.1 91.1-56.4 124.4l-4.3 4.4c-54.4 64.6-121.7 129-182.5 189-60.8-60-123.7-122.2-180.2-188.8l-2.1-2.2c-19.6-24.5-39.1-46.7-50-71.1m-43.6-142.2c-30.3 48.8-34.7 106.5-13 162 13 33.3 39 62.1 60.7 88.8l2.2 2.2c56.3 68.8 125.7 135.4 186.4 195.3l39 39.9 21.7-20c67.2-64.4 145.2-139.8 208.1-213.1l4.3-4.5c32.5-37.7 75.9-88.8 69.4-170.9-2.1-42.2-21.7-84.4-52-115.4C660 160.2 621 142.4 582 138c-69.4-6.7-112.7 24.4-140.9 53.3-28.2-31.1-69.4-59.9-138.8-53.3-54.2 4.4-108.4 37.7-138.8 88.7" fill="#f2f2f2"/></svg>