<svg xmlns="http://www.w3.org/2000/svg" viewBox="0 0 46 46"><linearGradient id="a" gradientUnits="userSpaceOnUse" x1="100%" y1="0%" y2="100%" gradientTransform="rotate(230 22 22)"><stop offset="0" stop-color="gold"/><stop offset=".495" stop-color="#f80000"/><stop offset="1" stop-color="#bc00b2"/></linearGradient><circle cx="23" cy="23" r="23" fill="url(#a)"/><path d="M23 19.3c-2.2 0-4 1.9-4 4.2s1.8 4.2 4 4.2 4-1.9 4-4.2-1.8-4.2-4-4.2m0 10.6c-3.4 0-6.2-2.9-6.2-6.4 0-3.5 2.8-6.4 6.2-6.4s6.2 2.9 6.2 6.4c0 3.5-2.8 6.4-6.2 6.4m6.4-11.6c-.8 0-1.4-.7-1.4-1.5s.6-1.5 1.4-1.5 1.4.7 1.4 1.5-.6 1.5-1.4 1.5m3.4.1c-.1-1.2-.2-1.9-.4-2.3-.2-.6-.5-1-.9-1.4-.4-.4-.8-.7-1.4-.9-.4-.2-1.1-.4-2.2-.4-1.3-.1-1.6-.1-4.8-.1s-3.6 0-4.8.1c-1.2.1-1.8.3-2.2.4-.6.2-1 .5-1.4.9s-.7.9-.9 1.4c-.2.4-.4 1.1-.4 2.3-.1 1.3-.1 1.7-.1 5.1 0 3.3 0 3.7.1 5.1.1 1.2.2 1.9.4 2.3.2.6.5 1 .9 1.4.4.4.8.7 1.4.9.4.2 1.1.4 2.2.4 1.3.1 1.6.1 4.8.1s3.6 0 4.8-.1c1.2-.1 1.8-.3 2.2-.4.6-.2 1-.5 1.4-.9.4-.4.7-.9.9-1.4.2-.4.4-1.1.4-2.3.1-1.3.1-1.7.1-5.1-.1-3.3-.1-3.7-.1-5.1m2.1 10.3c-.1 1.3-.3 2.2-.6 3-.3.8-.7 1.5-1.4 2.2-.7.7-1.3 1.1-2.1 1.4-.8.3-1.6.5-2.9.6-1.2.1-1.6.1-4.9.1s-3.7 0-4.9-.1c-1.3-.1-2.1-.3-2.9-.6-.8-.3-1.5-.7-2.1-1.4-.7-.7-1.1-1.4-1.4-2.2-.3-.8-.5-1.7-.6-3-.1-1.4-.1-1.8-.1-5.2s0-3.8.1-5.2c.1-1.3.3-2.2.6-3 .3-.8.7-1.5 1.4-2.2.7-.7 1.3-1.1 2.1-1.4.8-.3 1.6-.5 2.9-.6 1.2-.1 1.6-.1 4.9-.1s3.7 0 4.9.1c1.3.1 2.1.3 2.9.6.8.3 1.5.7 2.1 1.4.7.7 1.1 1.4 1.4 2.2.3.8.5 1.7.6 3 .1 1.3.1 1.8.1 5.2s0 3.8-.1 5.2" fill="#fff"/></svg>