<svg xmlns="http://www.w3.org/2000/svg" width="640" height="640" viewBox="0 0 640 640"><path fill="#fff" d="M321.454 571.636l-14.546-13.091c-45.091-42.182-97.454-91.636-139.636-139.636L164.363 416c-21.818-24.727-50.909-58.182-46.546-112 1.454-27.636 14.546-55.272 34.909-75.636s46.546-32 72.727-34.909c46.546-4.364 75.636 16 94.546 34.909 18.909-20.364 46.546-39.273 93.091-34.909 36.364 2.909 72.728 24.728 93.091 58.182 20.364 32 23.272 69.818 8.728 106.182-8.728 21.818-26.182 40.727-40.727 58.182l-1.454 1.454c-37.818 45.091-84.364 88.728-125.091 128l-26.182 26.182zm-82.908-334.545h-8.727c-16 1.454-34.909 10.182-48 23.273-10.182 8.727-21.818 24.728-23.273 48C155.637 344.728 176 368 196.364 389.818l2.909 2.909c36.364 42.182 81.454 84.364 122.182 123.636 40.728-39.273 82.909-80 120.728-123.636l1.454-1.454c13.091-16 26.182-30.546 33.454-46.546 10.182-23.272 7.272-48-5.818-68.364-13.091-21.818-36.364-36.364-59.636-39.273-37.818-2.909-53.818 16-72.728 37.818L320 296.726l-17.454-20.364c-18.909-24.728-34.909-39.273-64-39.273zM0 637.091l1.454 1.454h58.182c-20.364-20.364-40.728-42.182-59.636-64v62.546zm637.091 1.455l2.909-2.909v-62.546c-20.364 23.273-40.727 45.091-61.091 65.454h58.182zM0 0v53.818C23.272 33.454 49.454 14.546 78.546 0H0zm638.546 0H560c29.091 14.546 55.273 33.454 80 55.273L638.546 0zm-59.637 506.182c-40.727 48-87.272 93.091-129.454 132.364h59.636c33.454-32 68.364-68.364 100.364-104.727l1.454-1.454c8.728-10.182 18.909-21.818 29.091-34.909v-81.454c-17.454 39.273-43.636 69.818-59.636 88.728l-1.454 1.454zm-517.818 0l-2.909-2.909C43.636 485.819 18.909 456.727 0 416.001v81.454c10.182 13.091 18.909 24.727 26.182 33.454l2.909 2.909c32 36.364 66.909 72.728 100.364 104.727h61.091c-43.636-40.727-90.182-85.818-129.454-132.364z"/><path fill="#fff" d="M426.182 11.636c-8.728 0-16-1.454-24.727-1.454-27.636 0-55.273 4.364-81.454 11.636-26.182-7.272-53.818-11.636-81.454-11.636-10.182 0-18.909 0-29.091 1.454C144.002 17.454 77.092 48 27.638 96 17.456 106.182 8.729 114.909.002 125.091v80c13.091-29.091 32-55.273 55.273-78.546 43.636-42.182 100.364-68.364 157.091-72.728 8.728-1.454 16-1.454 24.728-1.454 26.182 0 50.909 4.364 75.636 11.636l7.272 1.454 5.818-1.454c23.272-7.273 49.454-11.636 75.636-11.636 7.272 0 14.546 0 21.818 1.454 80 5.818 157.091 53.818 200.728 123.636 5.818 10.182 11.636 20.364 16 30.546v-81.454C587.638 61.091 509.093 17.454 426.184 11.636z"/><path fill="#fff" d="M541.091 474.182c18.909-21.818 42.182-49.454 56.727-84.364 26.182-62.546 20.364-130.909-14.546-187.636s-97.454-96-162.909-101.818h-17.454c-29.091 0-56.728 5.818-81.454 17.454-24.728-11.636-52.364-17.454-81.454-17.454-7.273 0-13.091 0-20.364 1.454-46.546 4.364-93.091 26.182-128 59.636-37.818 36.364-59.636 82.909-62.546 133.818-5.818 90.182 45.091 148.364 68.364 177.454l2.909 2.909c45.091 52.364 100.364 104.727 146.909 148.364l17.454 16h113.454l32-30.546c42.182-42.182 90.182-87.273 130.909-135.273zm-160 104.727l-59.636 56.728-48-45.091c-46.546-42.182-100.364-93.091-144-144l-2.909-2.909c-23.272-27.636-64-74.182-58.182-146.909 2.909-40.727 20.364-78.546 50.909-107.636 29.091-27.636 65.454-45.091 103.273-48 5.818 0 11.636-1.454 17.454-1.454 26.182 0 50.909 5.818 71.273 17.454l10.182 4.364 10.182-4.364c21.818-11.636 46.546-17.454 72.728-17.454h14.546c52.364 4.364 101.818 34.909 130.909 81.454 27.636 45.091 32 100.364 11.636 149.818-11.636 29.091-32 52.364-48 71.272l-4.364 4.364c-39.272 46.546-85.818 91.636-128 132.364z"/></svg>