<svg xmlns="http://www.w3.org/2000/svg" width="640" height="640" viewBox="0 0 640 640"><path fill="#fff" d="M640 640v-40.727L599.273 640zM0 0v40.727L40.727 0zm149.818 130.909L280.727 0h-59.636l-71.273 71.273-55.273-53.818-94.546 94.546v58.182l94.546-94.546zm340.364 378.182L359.273 640h59.636l71.272-71.273 55.273 53.818L640 527.999v-58.182l-94.546 94.546z"/><path fill="#fff" d="M488.728 381.091L229.819 640h58.182l200.727-200.727 56.728 53.818 94.546-94.546v-58.182l-96 94.546zM151.273 258.909L410.182 0H352L151.273 200.727l-56.728-55.273-94.546 96v58.182l96-94.546z"/><path fill="#fff" d="M488.728 251.636l-336 336-55.273-55.273L.001 629.817v10.182h49.454l48-48 49.454 48h11.636l330.182-328.728 55.272 53.818 96-96v-59.636l-96 97.454zM590.546 0l-48 48-49.454-48h-11.636L151.274 328.728 96.001 274.91l-96 96v58.182l96-96 55.273 55.273 336-336 55.273 55.273 97.454-97.454V.002z"/><path fill="#fff" d="M487.272 123.636L152.726 458.182l-56.727-53.818-96 96V560l97.454-97.454 55.273 53.818 334.546-334.546 56.727 53.818 96-96V80l-97.454 97.454z"/></svg>