<svg width="45" height="36" viewBox="0 0 45 36" xmlns="http://www.w3.org/2000/svg"><path d="M20.138 25.64c0 2.976-.912 5.4-2.736 7.272-1.824 1.872-4.128 2.808-6.912 2.808-2.688 0-4.968-.912-6.84-2.736C1.778 31.16.842 28.712.842 25.64c0-1.44.216-2.736.648-3.888.432-1.152 1.08-2.544 1.944-4.176L12.506.152h9.36l-6.048 17.136c2.88 1.824 4.32 4.608 4.32 8.352zm22.896 0c0 2.976-.912 5.4-2.736 7.272-1.824 1.872-4.128 2.808-6.912 2.808-2.688 0-4.968-.912-6.84-2.736-1.872-1.824-2.808-4.272-2.808-7.344 0-1.44.216-2.736.648-3.888.432-1.152 1.08-2.544 1.944-4.176L35.402.152h9.36l-6.048 17.136c2.88 1.824 4.32 4.608 4.32 8.352z" fill="#F70C36" fill-rule="evenodd"/></svg>