<?xml version="1.0" standalone="no"?>
<!DOCTYPE svg PUBLIC "-//W3C//DTD SVG 20010904//EN"
 "http://www.w3.org/TR/2001/REC-SVG-20010904/DTD/svg10.dtd">
<svg version="1.0" xmlns="http://www.w3.org/2000/svg"
 width="625.000000pt" height="132.000000pt" viewBox="0 0 625.000000 132.000000"
 preserveAspectRatio="xMidYMid meet">
<metadata>
Created by potrace 1.15, written by Peter Selinger 2001-2017
</metadata>
<g transform="translate(0.000000,132.000000) scale(0.100000,-0.100000)"
fill="#000000" stroke="none">
<path d="M596 1296 c-218 -91 -377 -298 -406 -530 -5 -39 -7 -72 -6 -74 2 -2
51 30 110 70 100 68 109 72 171 76 56 4 70 1 109 -22 28 -17 56 -44 72 -72 24
-40 26 -53 22 -113 l-5 -69 49 -6 c40 -6 57 -15 92 -50 51 -50 70 -101 63
-163 -8 -70 -56 -120 -232 -242 -56 -38 -54 -40 45 -67 87 -24 252 -24 340 0
185 50 344 181 424 348 55 117 70 178 70 298 0 115 -15 180 -64 285 -68 143
-175 250 -320 319 l-65 31 -205 3 c-198 2 -207 1 -264 -22z"/>
<path d="M3830 650 l0 -440 1150 0 1150 0 0 440 0 440 -1150 0 -1150 0 0 -440z
m857 275 c0 -7 -6 -11 -13 -8 -7 2 -20 0 -30 -5 -14 -8 -10 -10 20 -14 20 -2
36 0 36 5 0 4 8 6 19 2 11 -3 21 0 24 9 4 9 -1 17 -11 19 -9 3 18 5 61 6 50 1
76 -3 72 -9 -3 -5 -1 -10 4 -10 6 0 11 5 11 11 0 6 23 9 60 8 50 -2 58 -5 51
-18 -6 -10 -4 -19 5 -26 12 -8 12 -15 2 -38 -7 -15 -19 -25 -25 -22 -7 2 -13
1 -14 -3 0 -4 -2 -19 -4 -35 -2 -15 0 -25 6 -22 5 4 9 0 9 -7 1 -9 5 -7 14 5
7 9 18 17 25 17 14 0 15 -27 0 -36 -8 -4 -8 -9 0 -17 17 -17 13 -78 -6 -93
-17 -13 -17 -14 0 -8 15 6 17 -1 16 -62 -1 -38 -6 -75 -12 -81 -6 -9 -6 -13 2
-13 18 0 10 -113 -9 -122 -12 -5 -11 -7 3 -7 10 -1 15 -6 12 -11 -4 -6 -55
-10 -121 -10 -74 0 -113 4 -109 10 3 6 1 10 -4 10 -6 0 -11 -4 -11 -10 0 -6
-63 -10 -172 -9 -145 1 -167 3 -138 13 l35 11 -11 63 c-9 53 -9 65 2 69 8 3
14 10 14 15 0 6 -7 8 -15 4 -17 -6 -21 9 -5 19 6 4 8 15 5 25 -3 10 -1 39 5
66 14 61 14 254 0 268 -7 7 -10 6 -10 -4 0 -9 -8 -6 -25 10 -21 20 -40 24
-132 32 -59 5 -112 10 -118 13 -5 2 101 3 236 3 197 0 246 -2 246 -13z m925
-1 c6 -4 8 -3 5 4 -6 9 41 8 96 -3 9 -2 17 1 17 6 0 5 10 4 22 -2 12 -7 23 -8
25 -3 3 10 140 10 150 0 3 -3 0 -12 -7 -21 -7 -8 -8 -15 -2 -15 5 0 15 6 22
14 6 8 19 12 28 9 15 -6 16 -5 2 12 -14 17 -13 18 3 12 10 -4 28 -7 39 -7 20
0 20 -4 14 -152 -3 -84 -6 -162 -6 -173 -1 -16 -3 -17 -10 -5 -5 8 -13 11 -17
6 -4 -4 0 -13 10 -20 20 -15 25 -116 6 -116 -6 0 -9 -7 -6 -15 4 -8 1 -17 -5
-21 -7 -4 -8 -3 -4 4 5 8 -1 12 -18 12 -13 0 -26 5 -28 12 -3 7 -10 8 -17 4
-11 -7 -11 -10 0 -17 8 -5 10 -9 4 -9 -5 0 -17 5 -25 10 -10 6 -11 10 -2 10 6
0 11 5 10 12 -4 17 -80 51 -87 39 -4 -5 -14 -3 -25 5 -18 12 -15 19 7 15 4 0
7 3 7 9 0 5 -4 10 -9 10 -5 0 -16 3 -24 6 -8 3 -17 -2 -21 -12 -8 -20 51 -87
67 -77 6 3 7 1 4 -4 -13 -21 30 -45 77 -42 25 2 48 0 52 -4 7 -6 -12 -8 -148
-10 -27 -1 -48 -2 -48 -3 0 -2 5 -15 11 -31 l10 -28 -26 25 c-21 20 -25 21
-19 6 5 -13 3 -17 -6 -14 -24 8 -23 28 2 37 12 6 17 10 10 10 -7 1 -21 -5 -32
-11 -17 -11 -22 -10 -29 0 -6 10 -30 13 -90 10 -44 -2 -81 -7 -81 -11 0 -5 -4
-5 -10 -2 -6 4 -5 19 5 41 9 23 10 34 3 34 -6 0 -3 9 6 19 15 16 16 22 5 34
-7 8 -21 12 -31 9 -15 -3 -18 2 -18 28 0 21 4 30 13 27 6 -2 11 -10 10 -16 -2
-6 6 -11 17 -11 11 0 20 5 20 10 0 6 -4 10 -10 10 -5 0 -10 7 -10 16 0 11 -6
14 -20 9 -14 -4 -20 -2 -20 9 0 8 5 18 10 21 6 3 10 1 10 -4 0 -6 9 -11 21
-11 15 0 19 4 15 16 -3 8 -1 24 5 36 13 24 -12 58 -43 58 -11 0 -16 5 -13 10
3 6 3 15 -1 21 -11 18 -4 163 8 170 13 8 105 2 120 -7z m-428 -106 c11 -10 14
-18 8 -18 -7 0 -12 -4 -12 -10 0 -5 6 -10 14 -10 16 0 56 -59 56 -84 0 -9 4
-16 10 -16 5 0 13 -12 16 -27 4 -15 17 -42 30 -60 12 -19 25 -39 27 -46 13
-37 20 20 18 148 l-2 145 41 0 42 0 -6 -181 c-3 -100 -8 -184 -11 -187 -2 -3
0 -11 6 -19 9 -10 8 -13 -1 -13 -7 0 -10 -7 -6 -15 4 -12 -3 -15 -33 -15 -45
0 -73 9 -66 20 3 4 -2 13 -10 20 -8 7 -15 18 -15 26 0 7 -10 30 -22 51 -13 20
-36 64 -53 97 -41 82 -52 82 -54 -1 -1 -40 -6 -71 -14 -76 -9 -7 -9 -10 1 -14
16 -6 16 -95 0 -111 -7 -7 -25 -12 -40 -12 -27 0 -28 2 -28 48 0 26 6 54 13
61 10 11 10 14 0 18 -7 3 -13 13 -13 24 0 10 -6 19 -12 19 -9 0 -10 3 -2 8 6
4 11 39 11 77 2 150 2 149 18 135 9 -7 15 -8 15 -2 0 5 -7 12 -15 16 -8 3 -15
10 -15 16 0 18 83 9 104 -12z m-1060 1 c44 1 57 -1 46 -9 -9 -6 -10 -10 -3
-10 6 0 14 4 18 9 3 5 34 9 70 9 40 -1 62 -5 58 -11 -4 -6 4 -7 21 -3 16 4 26
2 26 -4 0 -6 5 -8 10 -5 12 7 32 -41 27 -64 -2 -9 -8 -15 -15 -14 -6 2 -9 -3
-6 -11 3 -7 -2 -16 -11 -20 -23 -8 -9 -25 15 -19 30 8 24 -5 -12 -27 -22 -13
-27 -20 -15 -20 32 0 53 -33 56 -89 4 -97 -35 -121 -194 -120 -50 1 -108 1
-131 1 l-41 -1 -7 67 c-8 85 -8 315 0 336 3 9 11 13 17 9 5 -3 38 -5 71 -4z"/>
<path d="M4580 688 c0 -171 1 -184 22 -214 29 -42 85 -58 178 -52 135 10 150
38 150 278 l0 170 -55 0 -55 0 -1 -82 c-1 -251 -3 -269 -28 -289 -30 -24 -56
-24 -81 1 -18 18 -20 33 -20 153 0 82 4 137 11 144 8 8 8 13 0 17 -6 4 -11 18
-11 32 0 23 -3 24 -55 24 l-55 0 0 -182z"/>
<path d="M5917 833 c-58 -4 -59 -5 -145 -88 -84 -81 -87 -83 -90 -57 -2 15 -9
31 -15 35 -9 6 -9 10 1 14 13 5 15 34 6 71 -6 19 -13 22 -55 22 l-48 0 -1
-204 0 -203 55 -2 55 -1 -3 48 c-2 39 -6 49 -27 59 -14 6 -19 12 -10 12 8 1
20 12 26 26 10 21 9 24 -12 27 -15 2 -21 7 -16 14 5 8 14 9 32 1 14 -5 34 -9
45 -8 17 2 18 0 5 -9 -12 -8 -8 -9 15 -6 17 2 34 5 38 5 5 1 5 6 1 13 -4 7 -3
8 4 4 7 -4 12 -16 12 -28 0 -17 4 -19 28 -14 17 4 22 3 13 -2 -10 -7 -10 -11
-1 -17 6 -4 16 -3 21 2 6 6 -10 28 -42 58 -28 26 -45 45 -36 42 9 -3 27 7 46
27 35 36 39 49 14 39 -11 -4 -14 -3 -9 6 4 6 16 9 26 6 12 -4 35 9 70 39 29
25 57 43 62 40 4 -3 8 4 8 15 0 12 -3 20 -7 19 -5 -1 -34 -3 -66 -5z"/>
<path d="M4120 705 l0 -55 83 0 c45 0 88 4 96 9 18 11 19 65 1 85 -9 12 -33
16 -96 16 l-84 0 0 -55z"/>
<path d="M4120 541 l0 -61 88 0 c98 0 122 12 122 62 0 41 -24 52 -121 56 l-89
4 0 -61z"/>
<path d="M2339 905 c-6 -22 -15 -48 -21 -59 -5 -10 -17 -42 -25 -70 -8 -28
-20 -57 -25 -64 -6 -7 -12 -27 -13 -45 -1 -17 -5 -42 -9 -54 -5 -14 -3 -23 3
-23 15 0 12 -72 -4 -135 -7 -27 -13 -42 -14 -33 0 9 -7 18 -13 21 -10 3 -10 8
1 21 11 13 12 19 3 25 -7 4 -9 17 -5 31 14 58 14 122 0 164 -14 40 -14 46 -1
57 20 16 16 139 -3 139 -16 0 -17 22 -1 38 8 8 -20 11 -115 10 -117 0 -127 -2
-127 -19 0 -11 -4 -19 -10 -19 -5 0 -10 -6 -10 -13 0 -19 -37 -50 -49 -42 -19
11 -13 45 9 45 10 0 25 10 31 23 12 22 12 22 -9 4 -19 -18 -20 -18 -33 1 -12
16 -28 19 -106 20 -61 1 -93 -2 -93 -9 0 -6 -6 -9 -12 -6 -10 3 -13 -60 -13
-295 l0 -299 53 2 c28 1 52 6 52 10 0 5 10 14 23 20 20 11 21 11 8 -5 -8 -9
-11 -19 -8 -22 6 -6 47 32 47 44 0 9 40 35 58 38 11 2 11 0 0 -14 -8 -10 -9
-13 -1 -9 6 4 14 3 17 -2 3 -5 0 -11 -8 -14 -20 -8 -28 -47 -9 -47 8 0 17 9
20 20 3 11 9 17 14 15 4 -3 6 -12 2 -20 -5 -15 8 -21 21 -8 10 10 48 14 42 5
-8 -14 134 -15 150 -1 10 8 14 8 14 0 0 -6 11 -11 24 -11 17 0 26 7 30 25 4
14 4 30 1 34 -3 5 2 12 11 15 12 4 14 1 9 -14 -5 -16 -2 -20 14 -20 23 0 28
-15 9 -23 -9 -4 -8 -6 2 -6 9 -1 22 5 29 12 10 8 12 8 7 0 -5 -9 2 -9 25 -3
18 5 37 7 42 3 14 -9 297 -11 297 -2 0 6 26 18 73 33 13 4 21 -4 33 -34 13
-33 19 -38 30 -29 20 16 17 30 -3 22 -16 -6 -17 -5 -3 11 13 16 12 20 -5 32
-10 8 -25 14 -32 14 -10 0 -13 24 -13 100 0 64 -5 113 -15 137 -8 21 -16 54
-17 73 -3 30 0 35 17 32 16 -2 17 -1 6 7 -8 5 -16 21 -18 36 -2 14 -12 34 -21
43 -10 10 -29 43 -42 75 l-25 57 -143 -2 -143 -3 -10 -40z m-460 -82 c5 -21
22 -89 37 -151 l29 -113 32 128 c18 70 31 133 29 139 -9 23 20 34 91 34 l73 0
0 -220 0 -220 -35 0 c-19 0 -35 -5 -35 -11 0 -8 -4 -8 -13 -1 -10 9 -12 49 -9
174 2 97 0 159 -6 153 -9 -10 -73 -250 -78 -292 -2 -19 3 -23 25 -23 26 0 51
-16 51 -32 0 -5 -9 -4 -20 2 -11 6 -26 8 -32 4 -7 -5 -8 -3 -3 6 6 10 3 12
-13 8 -14 -4 -20 -2 -15 4 4 8 -6 9 -30 5 -21 -3 -41 -1 -49 6 -8 7 -32 84
-54 172 l-39 160 -3 -167 -2 -168 -45 0 -45 0 0 220 0 220 75 0 74 0 10 -37z
m636 -3 c-3 -5 -1 -10 4 -10 6 0 11 6 11 13 1 16 29 -34 30 -52 0 -12 -3 -12
-12 -3 -15 15 -52 16 -43 1 4 -6 12 -8 19 -6 6 2 21 -7 34 -19 12 -13 20 -24
17 -24 -4 0 1 -7 9 -16 25 -25 32 -65 12 -79 -24 -18 -20 -22 24 -22 43 0 72
-17 64 -38 -7 -17 -54 -26 -76 -14 -10 6 -19 5 -23 -1 -9 -15 -105 -13 -105 2
0 9 -3 9 -12 0 -7 -7 -20 -12 -31 -12 -12 0 -25 -15 -38 -45 -11 -25 -27 -45
-35 -45 -8 0 -12 5 -9 10 3 6 1 10 -4 10 -6 0 -11 -7 -11 -15 0 -9 -9 -15 -21
-15 -16 0 -20 4 -15 18 35 95 61 152 68 152 4 0 8 5 8 11 0 5 -6 7 -12 3 -10
-6 -10 -5 -1 7 7 9 24 44 37 80 13 35 29 76 35 92 9 22 16 27 46 27 22 0 34
-4 30 -10z"/>
<path d="M2910 828 c-25 -6 -51 -15 -57 -20 -22 -18 -34 -83 -24 -129 13 -58
42 -78 106 -75 27 1 56 -2 62 -7 7 -5 24 -7 38 -5 34 7 57 -21 53 -63 -4 -43
-34 -57 -111 -51 -56 4 -60 6 -73 38 -12 28 -20 34 -43 34 -33 0 -44 -19 -35
-58 12 -48 33 -63 81 -58 31 3 43 0 43 -9 0 -14 36 -15 58 -1 7 4 12 2 12 -3
0 -16 44 -13 89 5 28 11 43 24 50 46 14 39 14 118 1 118 -5 0 -7 6 -4 14 9 24
-49 46 -133 52 -63 4 -79 2 -97 -13 -18 -16 -19 -16 -7 -1 11 14 10 21 -3 40
-21 30 -20 44 4 68 16 16 33 20 80 20 58 0 62 -1 74 -30 12 -28 13 -29 31 -12
18 16 18 16 6 0 -12 -16 -10 -18 19 -18 30 0 31 2 29 33 -7 73 -64 105 -130
72 l-34 -18 19 22 19 21 -39 -1 c-21 -1 -59 -6 -84 -11z"/>
<path d="M3439 835 c-3 -2 -23 -7 -45 -10 -46 -7 -69 -31 -78 -80 -15 -79 31
-150 92 -142 15 2 37 0 50 -4 17 -7 21 -6 16 4 -5 8 -2 8 9 -2 9 -7 28 -11 42
-9 34 7 57 -21 53 -63 -4 -44 -28 -55 -106 -51 -60 4 -63 5 -77 38 -12 29 -19
34 -49 34 -34 0 -34 0 -32 -40 5 -59 30 -82 82 -77 28 3 44 1 47 -7 6 -14 35
-15 55 -2 6 4 12 2 12 -3 0 -16 45 -13 86 4 23 9 33 19 28 26 -4 8 -3 9 4 5 8
-4 16 3 22 19 13 34 13 115 0 115 -5 0 -7 6 -4 14 9 24 -49 46 -133 51 -63 4
-81 2 -97 -13 -19 -16 -20 -16 -7 0 11 14 10 21 -3 40 -38 53 -4 88 87 88 55
0 59 -2 71 -30 12 -28 13 -29 31 -12 18 16 18 16 6 0 -12 -16 -10 -18 18 -18
30 0 32 2 29 36 -1 19 -8 38 -14 42 -7 4 -13 12 -13 17 0 6 -14 14 -31 19 -23
7 -40 5 -68 -8 l-37 -18 19 21 19 21 -40 0 c-22 0 -42 -2 -44 -5z"/>
<path d="M338 540 c-96 -66 -115 -83 -111 -100 3 -11 9 -23 14 -26 9 -5 217
134 239 161 14 17 7 45 -13 45 -7 0 -66 -36 -129 -80z"/>
<path d="M3185 389 l-60 -49 -140 0 c-139 0 -141 0 -142 -22 -2 -19 0 -20 8
-6 5 10 17 14 29 11 11 -3 17 -9 14 -14 -2 -5 76 -8 176 -8 l180 -1 1 38 0 37
16 -38 c12 -30 18 -35 29 -26 17 14 19 33 3 23 -8 -4 -9 0 -4 15 5 16 1 23
-19 32 -14 7 -26 22 -28 34 -3 21 -7 19 -63 -26z"/>
<path d="M3670 385 l-55 -45 -144 0 c-79 0 -141 -3 -138 -7 4 -3 2 -12 -4 -20
-7 -8 -8 -13 -1 -13 5 0 12 6 15 14 4 9 14 12 26 9 12 -3 18 -9 15 -14 -2 -5
76 -8 176 -8 l180 -1 0 65 c0 36 -3 65 -7 65 -5 -1 -33 -21 -63 -45z"/>
<path d="M549 364 c-58 -39 -181 -125 -188 -131 -3 -2 4 -13 15 -24 l20 -20
120 83 c84 59 119 89 119 103 0 32 -28 28 -86 -11z"/>
</g>
</svg>
